<svg xmlns="http://www.w3.org/2000/svg" viewBox="0 0 16 16">
  <path
    d="M1073.6,1343.22v-0.03c0,0.01-.01.02-0.01,0.03h0.01Zm6.22-7.22h-13.64a1.163,1.163,0,0,0-1.18,1.15v13.7a1.163,1.163,0,0,0,1.18,1.15h13.64a1.163,1.163,0,0,0,1.18-1.15v-13.7A1.163,1.163,0,0,0,1079.82,1336Zm-9.97,13.39h-2.42v-7.22h2.42v7.22Zm-1.21-8.21h-0.01a1.244,1.244,0,0,1-1.34-1.25A1.365,1.365,0,1,1,1068.64,1341.18Zm9.92,8.21h-2.41v-3.86c0-.97-0.35-1.64-1.23-1.64a1.339,1.339,0,0,0-1.24.88,1.756,1.756,0,0,0-.08.59v4.03h-2.41s0.03-6.54,0-7.22h2.41v1.02a2.423,2.423,0,0,1,2.18-1.19c1.59,0,2.78,1.03,2.78,3.25v4.14Z"
    transform="translate(-1065 -1336)"/>
</svg>
